Coordinates
version=1
nRows=17
nColumns=24
inDegrees=yes

Units are S.I. units (second, meters, Newtons, ...)
Angles are in degrees.

endheader
time	pelvis_tilt	pelvis_list	pelvis_rotation	pelvis_tx	pelvis_ty	pelvis_tz	hip_flexion_r	hip_adduction_r	hip_rotation_r	knee_angle_r	ankle_angle_r	subtalar_angle_r	mtp_angle_r	hip_flexion_l	hip_adduction_l	hip_rotation_l	knee_angle_l	ankle_angle_l	subtalar_angle_l	mtp_angle_l	lumbar_extension	lumbar_bending	lumbar_rotation
      0.47800000	     -1.29003472	      5.78595755	     -3.99109991	     -0.79717177	      0.99210483	      0.28246941	     22.67106759	     -4.49575901	      1.23048482	     -0.46902242	      2.01831464	     -2.82184207	      8.46659613	    -14.89349303	     10.98409316	      9.26778196	     -3.19621393	      8.89020416	    -12.93495350	      0.18767604	    -13.15956564	      2.00814984	     -6.67332936
      0.48216667	     -1.33309582	      5.71761938	     -4.03796963	     -0.79162196	      0.99142199	      0.28291121	     22.83155740	     -4.34211053	      1.38962009	     -0.97559887	      1.85151487	     -2.66535610	      8.48954589	    -14.94917577	     10.93953087	      9.08259934	     -3.70067464	      9.08597672	    -12.68316103	      0.22311911	    -13.11774668	      2.07792852	     -6.54166300
      0.48633333	     -1.37271043	      5.62337019	     -4.08798329	     -0.78603832	      0.99079234	      0.28339535	     22.96321841	     -4.15829069	      1.61611017	     -1.49761803	      1.57795808	     -2.69460902	      8.52664154	    -14.98045598	     10.86792879	      8.84990597	     -4.26558149	      9.29827839	    -12.38230315	      0.29380825	    -13.08241446	      2.17889034	     -6.43321935
      0.49050000	     -1.39311966	      5.51904730	     -4.14130076	     -0.78042785	      0.99022440	      0.28388197	     23.07948644	     -3.96613977	      1.83441854	     -2.09055911	      1.28031139	     -2.74158839	      8.57653311	    -15.00485912	     10.79102202	      8.60324139	     -4.88575957	      9.49961149	    -12.08907603	      0.39630230	    -13.06970447	      2.29057667	     -6.31824803
      0.49466667	     -1.41980624	      5.40847591	     -4.18961400	     -0.77479268	      0.98969292	      0.28437167	     23.20399788	     -3.76829533	      2.05445956	     -2.74258205	      0.94943139	     -2.83391079	      8.63727168	    -14.99903736	     10.70771781	      8.34618114	     -5.55834554	      9.68172168	    -11.78631987	      0.53464976	    -13.05374095	      2.41226862	     -6.21082207
      0.49883333	     -1.43707413	      5.28633727	     -4.24227762	     -0.76912711	      0.98919796	      0.28486797	     23.32078414	     -3.55856161	      2.26695486	     -3.44579211	      0.60148598	     -2.95370472	      8.70843763	    -14.97544279	     10.61638365	      8.07227348	     -6.28950243	      9.85785597	    -11.48426560	      0.70897696	    -13.03809708	      2.55039416	     -6.09913796
      0.50300000	     -1.47766630	      5.16142000	     -4.28859317	     -0.76342734	      0.98871118	      0.28535924	     23.46358778	     -3.34611351	      2.47154419	     -4.19574778	      0.23263104	     -3.11636618	      8.78362399	    -14.89594952	     10.52099752	      7.78174097	     -7.08024199	     10.00414585	    -11.18807513	      0.91655316	    -12.99629257	      2.69325627	     -5.99544657
      0.50716667	     -1.50164091	      5.02809895	     -4.33506381	     -0.75770785	      0.98827993	      0.28586507	     23.58822640	     -3.12629449	      2.66784322	     -4.98053465	     -0.13549693	     -3.30977913	      8.86770585	    -14.80266697	     10.41628835	      7.46516512	     -7.93732978	     10.13623873	    -10.85867135	      1.17663288	    -12.97465992	      2.84016040	     -5.89058501
      0.51133333	     -1.49544766	      4.88003478	     -4.36304363	     -0.75196794	      0.98793521	      0.28636076	     23.65697794	     -2.90257557	      2.84752163	     -5.75124164	     -0.51167062	     -3.52656012	      8.98839850	    -14.70194116	     10.29136184	      7.11012940	     -8.87906218	     10.26626092	    -10.46696015	      1.59366835	    -13.00360998	      3.00051541	     -5.79809266
      0.51550000	     -1.55551231	      4.75460187	     -4.41345315	     -0.74618809	      0.98751384	      0.28686143	     23.83527186	     -2.68662439	      3.03340675	     -6.62228245	     -0.85938365	     -3.77983310	      9.06289881	    -14.53274904	     10.19829185	      6.83843374	     -9.80328575	     10.28174636	    -10.26058850	      1.90104089	    -12.91655231	      3.15385790	     -5.69617959
      0.51966667	     -1.50620947	      4.55894189	     -4.46074747	     -0.74036402	      0.98728264	      0.28740311	     23.84126745	     -2.41172301	      3.20401166	     -7.42008437	     -1.20516008	     -4.05069981	      9.24824025	    -14.42721356	     10.02024178	      6.37542364	    -10.84915330	     10.42671204	     -9.75694971	      2.75862765	    -12.98576354	      3.38941673	     -5.61920669
      0.52383333	     -1.55216733	      4.41064955	     -4.47504283	     -0.73456158	      0.98695393	      0.28789388	     23.96599241	     -2.18732823	      3.36731010	     -8.26222834	     -1.50055613	     -4.34852793	      9.40721231	    -14.17451268	      9.88414275	      6.00000174	    -11.97787525	     10.42822636	     -9.42925759	      3.66270269	    -12.93172380	      3.55235243	     -5.50184794
      0.52800000	     -1.59269977	      4.30870831	     -4.52440101	     -0.72872217	      0.98665609	      0.28839303	     24.12457123	     -1.99900678	      3.54687567	     -9.19510836	     -1.68036834	     -4.64242730	      9.43304710	    -13.95994213	      9.81778478	      5.77055373	    -13.00664034	     10.15880558	     -9.43389687	      3.86372308	    -12.86368309	      3.68473105	     -5.44170630
      0.53216667	     -1.59320790	      4.12488093	     -4.53341487	     -0.72285838	      0.98647948	      0.28891611	     24.15959853	     -1.74297922	      3.70678285	     -9.99189634	     -2.01997152	     -5.08991773	      9.96977859	    -13.71193620	      9.62668721	      5.32744916	    -14.20079927	      9.99408865	     -9.06756727	      9.08997994	    -12.86434334	      3.88331706	     -5.34653435
      0.53633333	     -1.62174844	      3.99203459	     -4.53430512	     -0.71699268	      0.98627050	      0.28937587	     24.28249337	     -1.54809817	      3.77816141	    -10.92367749	     -2.09872448	     -5.30424879	      9.96907484	    -13.41033181	      9.49414046	      4.97759031	    -15.42974857	      9.79218995	     -8.76246585	      9.20106715	    -12.81754588	      4.04136913	     -5.26075532
      0.54050000	     -1.64434308	      3.85078107	     -4.53898760	     -0.71111947	      0.98611016	      0.28988126	     24.36076737	     -1.33680166	      3.92226295	    -11.78584241	     -2.17613033	     -5.63303413	      9.95914841	    -13.07958943	      9.34355304	      4.58826215	    -16.72359166	      9.53453189	     -8.46176495	      9.37684328	    -12.77939757	      4.19322078	     -5.18571009
      0.54466667	     -1.65561810	      3.68933047	     -4.53616309	     -0.70521640	      0.98601493	      0.29038207	     24.41451927	     -1.10993465	      4.03683340	    -12.64447827	     -2.20531483	     -5.97217040	      9.93923314	    -12.73575440	      9.15893789	      4.17313082	    -18.05118860	      9.22657742	     -8.10499212	      9.66395982	    -12.75064489	      4.38063378	     -5.10799730
